REM MD5 2fe3952d1908d0c2a890a0c8ae11d404
FILE "Lord Monarch - Shin Gaia Oukokuki (Japan).bin" BINARY
  TRACK 01 MODE2/2352
    INDEX 01 00:00:00
  TRACK 02 AUDIO
    INDEX 00 31:37:17
    INDEX 01 31:39:17
  TRACK 03 AUDIO
    INDEX 00 33:56:19
    INDEX 01 33:58:19
  TRACK 04 AUDIO
    INDEX 00 36:59:01
    INDEX 01 37:01:01
REM LEADOUT 38:06:28
